<mxfile host="app.diagrams.net" modified="2023-12-27T06:32:26.885Z" agent="Mozilla/5.0 (Windows NT 10.0; Win64; x64) AppleWebKit/537.36 (KHTML, like Gecko) Chrome/120.0.0.0 Safari/537.36" etag="u3Y7ZfsWvhce_OgWpB5K" version="22.1.12" type="google">
  <diagram name="第 1 页" id="sYOsCvhL1_PNy6ifTCnK">
    <mxGraphModel grid="1" page="1" gridSize="10" guides="1" tooltips="1" connect="1" arrows="1" fold="1" pageScale="1" pageWidth="827" pageHeight="1169" math="0" shadow="0">
      <root>
        <mxCell id="0" />
        <mxCell id="1" parent="0" />
        <mxCell id="bkOji_zJVR0-5Q8aZqv6-1" value=":CarCatalog" style="shape=umlLifeline;perimeter=lifelinePerimeter;whiteSpace=wrap;html=1;container=1;dropTarget=0;collapsible=0;recursiveResize=0;outlineConnect=0;portConstraint=eastwest;newEdgeStyle={&quot;curved&quot;:0,&quot;rounded&quot;:0};fillColor=#B9E0A5;" vertex="1" parent="1">
          <mxGeometry x="385" y="130" width="100" height="80" as="geometry" />
        </mxCell>
        <mxCell id="bkOji_zJVR0-5Q8aZqv6-2" value="" style="html=1;points=[[0,0,0,0,5],[0,1,0,0,-5],[1,0,0,0,5],[1,1,0,0,-5]];perimeter=orthogonalPerimeter;outlineConnect=0;targetShapes=umlLifeline;portConstraint=eastwest;newEdgeStyle={&quot;curved&quot;:0,&quot;rounded&quot;:0};fontSize=16;strokeColor=#000000;fillColor=#B9E0A5;" vertex="1" parent="bkOji_zJVR0-5Q8aZqv6-1">
          <mxGeometry x="44" y="70" width="16" height="50" as="geometry" />
        </mxCell>
        <mxCell id="bkOji_zJVR0-5Q8aZqv6-3" value=": SystemAssitant" style="shape=umlLifeline;perimeter=lifelinePerimeter;whiteSpace=wrap;html=1;container=1;dropTarget=0;collapsible=0;recursiveResize=0;outlineConnect=0;portConstraint=eastwest;newEdgeStyle={&quot;curved&quot;:0,&quot;rounded&quot;:0};fillColor=#B9E0A5;" vertex="1" parent="1">
          <mxGeometry x="185" y="130" width="100" height="410" as="geometry" />
        </mxCell>
        <mxCell id="bkOji_zJVR0-5Q8aZqv6-4" value="" style="html=1;points=[[0,0,0,0,5],[0,1,0,0,-5],[1,0,0,0,5],[1,1,0,0,-5]];perimeter=orthogonalPerimeter;outlineConnect=0;targetShapes=umlLifeline;portConstraint=eastwest;newEdgeStyle={&quot;curved&quot;:0,&quot;rounded&quot;:0};fillColor=#B9E0A5;" vertex="1" parent="bkOji_zJVR0-5Q8aZqv6-3">
          <mxGeometry x="45" y="70" width="10" height="50" as="geometry" />
        </mxCell>
        <mxCell id="bkOji_zJVR0-5Q8aZqv6-5" value="" style="html=1;points=[[0,0,0,0,5],[0,1,0,0,-5],[1,0,0,0,5],[1,1,0,0,-5]];perimeter=orthogonalPerimeter;outlineConnect=0;targetShapes=umlLifeline;portConstraint=eastwest;newEdgeStyle={&quot;curved&quot;:0,&quot;rounded&quot;:0};fillColor=#B9E0A5;" vertex="1" parent="bkOji_zJVR0-5Q8aZqv6-3">
          <mxGeometry x="45" y="190" width="10" height="50" as="geometry" />
        </mxCell>
        <mxCell id="bkOji_zJVR0-5Q8aZqv6-22" value="" style="html=1;points=[[0,0,0,0,5],[0,1,0,0,-5],[1,0,0,0,5],[1,1,0,0,-5]];perimeter=orthogonalPerimeter;outlineConnect=0;targetShapes=umlLifeline;portConstraint=eastwest;newEdgeStyle={&quot;curved&quot;:0,&quot;rounded&quot;:0};fontSize=16;fillColor=#B9E0A5;" vertex="1" parent="bkOji_zJVR0-5Q8aZqv6-3">
          <mxGeometry x="45" y="320" width="10" height="50" as="geometry" />
        </mxCell>
        <mxCell id="bkOji_zJVR0-5Q8aZqv6-6" value="" style="endArrow=classic;html=1;rounded=0;" edge="1" parent="1" source="bkOji_zJVR0-5Q8aZqv6-5" target="bkOji_zJVR0-5Q8aZqv6-26">
          <mxGeometry width="50" height="50" relative="1" as="geometry">
            <mxPoint x="315" y="420" as="sourcePoint" />
            <mxPoint x="435" y="340" as="targetPoint" />
          </mxGeometry>
        </mxCell>
        <mxCell id="bkOji_zJVR0-5Q8aZqv6-7" value="" style="shape=umlLifeline;perimeter=lifelinePerimeter;whiteSpace=wrap;html=1;container=1;dropTarget=0;collapsible=0;recursiveResize=0;outlineConnect=0;portConstraint=eastwest;newEdgeStyle={&quot;curved&quot;:0,&quot;rounded&quot;:0};participant=umlActor;fontSize=16;fillColor=#B9E0A5;" vertex="1" parent="1">
          <mxGeometry x="60" y="140" width="22" height="400" as="geometry" />
        </mxCell>
        <mxCell id="bkOji_zJVR0-5Q8aZqv6-8" value="" style="html=1;points=[[0,0,0,0,5],[0,1,0,0,-5],[1,0,0,0,5],[1,1,0,0,-5]];perimeter=orthogonalPerimeter;outlineConnect=0;targetShapes=umlLifeline;portConstraint=eastwest;newEdgeStyle={&quot;curved&quot;:0,&quot;rounded&quot;:0};fontSize=16;fillColor=#B9E0A5;" vertex="1" parent="bkOji_zJVR0-5Q8aZqv6-7">
          <mxGeometry x="6" y="90" width="10" height="50" as="geometry" />
        </mxCell>
        <mxCell id="bkOji_zJVR0-5Q8aZqv6-9" value="" style="html=1;points=[[0,0,0,0,5],[0,1,0,0,-5],[1,0,0,0,5],[1,1,0,0,-5]];perimeter=orthogonalPerimeter;outlineConnect=0;targetShapes=umlLifeline;portConstraint=eastwest;newEdgeStyle={&quot;curved&quot;:0,&quot;rounded&quot;:0};fontSize=16;fillColor=#B9E0A5;" vertex="1" parent="bkOji_zJVR0-5Q8aZqv6-7">
          <mxGeometry x="6" y="310" width="10" height="50" as="geometry" />
        </mxCell>
        <mxCell id="bkOji_zJVR0-5Q8aZqv6-10" value="browseCarCatalog()" style="html=1;verticalAlign=bottom;startArrow=none;endArrow=block;startSize=8;curved=0;rounded=0;entryX=0;entryY=0;entryDx=0;entryDy=5;startFill=0;exitX=1;exitY=0;exitDx=0;exitDy=5;exitPerimeter=0;" edge="1" parent="1" source="bkOji_zJVR0-5Q8aZqv6-8" target="bkOji_zJVR0-5Q8aZqv6-4">
          <mxGeometry x="0.0876" y="-1" relative="1" as="geometry">
            <mxPoint x="80" y="255" as="sourcePoint" />
            <mxPoint as="offset" />
          </mxGeometry>
        </mxCell>
        <mxCell id="bkOji_zJVR0-5Q8aZqv6-16" value="&lt;font style=&quot;font-size: 12px;&quot;&gt;[Car found]&lt;/font&gt;" style="text;html=1;align=center;verticalAlign=middle;resizable=0;points=[];autosize=1;strokeColor=none;fillColor=none;fontSize=16;" vertex="1" parent="1">
          <mxGeometry x="230" y="270" width="80" height="30" as="geometry" />
        </mxCell>
        <mxCell id="bkOji_zJVR0-5Q8aZqv6-17" value=":Car" style="shape=umlLifeline;perimeter=lifelinePerimeter;whiteSpace=wrap;html=1;container=1;dropTarget=0;collapsible=0;recursiveResize=0;outlineConnect=0;portConstraint=eastwest;newEdgeStyle={&quot;curved&quot;:0,&quot;rounded&quot;:0};fillColor=#B9E0A5;" vertex="1" parent="1">
          <mxGeometry x="545" y="130" width="100" height="200" as="geometry" />
        </mxCell>
        <mxCell id="bkOji_zJVR0-5Q8aZqv6-26" value="" style="html=1;points=[[0,0,0,0,5],[0,1,0,0,-5],[1,0,0,0,5],[1,1,0,0,-5]];perimeter=orthogonalPerimeter;outlineConnect=0;targetShapes=umlLifeline;portConstraint=eastwest;newEdgeStyle={&quot;curved&quot;:0,&quot;rounded&quot;:0};fontSize=16;fillColor=#B9E0A5;" vertex="1" parent="bkOji_zJVR0-5Q8aZqv6-17">
          <mxGeometry x="45" y="190" width="10" height="50" as="geometry" />
        </mxCell>
        <mxCell id="bkOji_zJVR0-5Q8aZqv6-18" value="findCar()" style="html=1;verticalAlign=bottom;endArrow=block;curved=0;rounded=0;entryX=0;entryY=0;entryDx=0;entryDy=5;fontSize=12;startSize=8;endSize=8;" edge="1" parent="1" source="bkOji_zJVR0-5Q8aZqv6-4" target="bkOji_zJVR0-5Q8aZqv6-2">
          <mxGeometry relative="1" as="geometry">
            <mxPoint x="285" y="225" as="sourcePoint" />
          </mxGeometry>
        </mxCell>
        <mxCell id="bkOji_zJVR0-5Q8aZqv6-19" value="" style="html=1;verticalAlign=bottom;endArrow=open;dashed=1;endSize=8;curved=0;rounded=0;fontSize=12;" edge="1" parent="1">
          <mxGeometry relative="1" as="geometry">
            <mxPoint x="240" y="230" as="targetPoint" />
            <Array as="points">
              <mxPoint x="365.37" y="230" />
            </Array>
            <mxPoint x="429.37" y="230" as="sourcePoint" />
          </mxGeometry>
        </mxCell>
        <mxCell id="bkOji_zJVR0-5Q8aZqv6-20" value="管理者" style="text;html=1;align=center;verticalAlign=middle;resizable=0;points=[];autosize=1;strokeColor=none;fillColor=none;fontSize=16;" vertex="1" parent="1">
          <mxGeometry x="40" y="188" width="70" height="30" as="geometry" />
        </mxCell>
        <mxCell id="bkOji_zJVR0-5Q8aZqv6-21" value="select:Car" style="shape=umlLifeline;perimeter=lifelinePerimeter;whiteSpace=wrap;html=1;container=1;dropTarget=0;collapsible=0;recursiveResize=0;outlineConnect=0;portConstraint=eastwest;newEdgeStyle={&quot;curved&quot;:0,&quot;rounded&quot;:0};fillColor=#B9E0A5;" vertex="1" parent="1">
          <mxGeometry x="700" y="130" width="100" height="410" as="geometry" />
        </mxCell>
        <mxCell id="bkOji_zJVR0-5Q8aZqv6-27" value="" style="html=1;points=[[0,0,0,0,5],[0,1,0,0,-5],[1,0,0,0,5],[1,1,0,0,-5]];perimeter=orthogonalPerimeter;outlineConnect=0;targetShapes=umlLifeline;portConstraint=eastwest;newEdgeStyle={&quot;curved&quot;:0,&quot;rounded&quot;:0};fontSize=16;fillColor=#B9E0A5;" vertex="1" parent="bkOji_zJVR0-5Q8aZqv6-21">
          <mxGeometry x="45" y="320" width="10" height="50" as="geometry" />
        </mxCell>
        <mxCell id="bkOji_zJVR0-5Q8aZqv6-23" value="selectCar()" style="html=1;verticalAlign=bottom;endArrow=block;curved=0;rounded=0;fontSize=12;startSize=8;endSize=8;dashed=1;" edge="1" parent="1">
          <mxGeometry relative="1" as="geometry">
            <mxPoint x="80" y="480" as="sourcePoint" />
            <mxPoint x="230" y="480" as="targetPoint" />
          </mxGeometry>
        </mxCell>
        <mxCell id="bkOji_zJVR0-5Q8aZqv6-28" value="" style="endArrow=none;dashed=1;html=1;rounded=0;" edge="1" parent="1" target="bkOji_zJVR0-5Q8aZqv6-27">
          <mxGeometry width="50" height="50" relative="1" as="geometry">
            <mxPoint x="240" y="480" as="sourcePoint" />
            <mxPoint x="660" y="480" as="targetPoint" />
          </mxGeometry>
        </mxCell>
        <mxCell id="bkOji_zJVR0-5Q8aZqv6-29" value="dispalyCar()" style="text;html=1;align=center;verticalAlign=middle;resizable=0;points=[];autosize=1;strokeColor=none;fillColor=none;" vertex="1" parent="1">
          <mxGeometry x="390" y="448" width="90" height="30" as="geometry" />
        </mxCell>
      </root>
    </mxGraphModel>
  </diagram>
</mxfile>
